<svg xmlns="http://www.w3.org/2000/svg" viewBox="0 0 178.89 145.21">
    <g id="Camada_2" data-name="Camada 2">
        <g id="Camada_1-2" data-name="Camada 1">
            <path d="M0,54.47c.38-1.46.67-2.94,1.16-4.36a21.6,21.6,0,0,1,42.06,6.53c.36,10-6.81,19.1-16.84,21.46a21.67,21.67,0,0,1-26-17.26A8.7,8.7,0,0,0,0,59.71Zm21.66-7A9.66,9.66,0,0,0,12,57.06a9.77,9.77,0,0,0,9.59,9.6,9.61,9.61,0,0,0,.1-19.22Z" />
            <path d="M89.49,65.69a28.14,28.14,0,0,1,14.24-8.11c11.4-2.43,23.39,3,29.59,13.53,6.07,10.3,6.05,21,1.79,31.89s-11.63,19.1-20.31,26.43A137.85,137.85,0,0,1,93,144.15a6.38,6.38,0,0,1-6.63.24C74.9,138.05,64.12,130.76,55.28,121c-6.89-7.63-12.12-16.19-13.91-26.52C38.75,79.33,46,64.68,59.3,59.17c10.38-4.29,19.93-2.4,28.43,4.89C88.3,64.55,88.83,65.08,89.49,65.69ZM69.67,69a14.25,14.25,0,0,0-8.49,2.76c-7.24,5.3-9.35,12.59-7.84,21.12C54.71,100.65,58.81,107,64,112.78c7,7.85,15.57,13.77,24.6,19a2.15,2.15,0,0,0,1.82,0,105.94,105.94,0,0,0,20.83-15.16c6.11-5.88,11.24-12.44,13.65-20.75,2.09-7.24,1.64-14.14-3.11-20.37-5.59-7.34-15.16-8.64-22.13-2.83A28.93,28.93,0,0,0,95,78.05c-3.26,4.56-7.86,4.59-11-.06-.3-.43-.56-.88-.87-1.3C79.69,72.19,75.56,69.07,69.67,69Z" />
            <path d="M87,23.44a23.36,23.36,0,1,1-46.72-.15A23.36,23.36,0,1,1,87,23.44ZM52.3,23.19A11.33,11.33,0,1,0,63.75,12,11.3,11.3,0,0,0,52.3,23.19Z" />
            <path d="M115.22,46.73A23.49,23.49,0,0,1,91.93,23.3a23.36,23.36,0,1,1,46.71.12A23.49,23.49,0,0,1,115.22,46.73Zm11.39-23.34a11.34,11.34,0,1,0-11.31,11.3A11.37,11.37,0,0,0,126.61,23.39Z" />
            <path d="M157.23,35.45A21.58,21.58,0,1,1,135.66,57,21.62,21.62,0,0,1,157.23,35.45Zm.05,12a9.55,9.55,0,0,0-9.58,9.5,9.61,9.61,0,1,0,9.58-9.5Z" />
        </g>
    </g>
</svg>