<?xml version="1.0" encoding="UTF-8"?>
<svg width="752pt" height="752pt" version="1.1" viewBox="0 0 752 752" xmlns="http://www.w3.org/2000/svg">
 <defs>
  <clipPath id="a">
   <path d="m163 139.21h426v473.58h-426z"/>
  </clipPath>
 </defs>
 <g clip-path="url(#a)">
  <path d="m268.2 559.35c-108.72-93.98 92.137-186.12 49.754-289.31-23.957-55.281-95.82-73.711-140.05-35.012-27.641 22.113-11.055 49.754 16.586 31.328 31.328-25.797 71.867-12.898 86.609 22.113 22.113 53.438-66.34 138.2-79.238 187.96-14.742 49.754 22.113 136.36 90.293 136.36h136.36c0-16.586-7.3711-23.957-22.113-25.797 36.855-33.168 42.383-73.711 1.8438-123.46 44.227 36.855 46.066 93.98 18.426 121.62 12.898 7.3711 14.742 18.426 16.586 27.641h53.438c-5.5273-7.3711-11.055-14.742-20.27-18.426-5.5273-92.137 46.066-119.78 62.652-173.21 11.055-42.383-5.5273-86.609-18.426-123.46 20.27-14.742 46.066 11.055 68.18-29.484-18.426-29.484-9.2148-70.023-47.91-81.078-7.3711-18.426 1.8438-31.328 11.055-47.91-95.82 33.168-110.56 57.125-119.78 134.52-14.742 103.19-40.539 62.652-112.41 116.09-68.18 49.754-53.438 105.04-51.598 169.53z" fill-rule="evenodd"/>
 </g>
</svg>
