<svg height='300px' width='300px'  fill="#000000" xmlns="http://www.w3.org/2000/svg" xmlns:xlink="http://www.w3.org/1999/xlink" version="1.1" x="0px" y="0px" viewBox="0 0 100 100" enable-background="new 0 0 100 100" xml:space="preserve"><path d="M90.798,39.151c0-2.321-0.928-11.138-2.784-14.85s-5.569-7.425-7.425-5.569c-0.798,0.797,2.606,4.043,3.713,7.425  c1.471,4.498,0.928,9.282,0.928,9.282c-12.065-4.64-31.501,2.785-41.711-2.784C33.481,27.18,35.105,13.632,14.881,7.002  c-0.584-0.192-0.814,0.097-0.509,0.632l3.16,5.531c0,0-5.569,2.783-5.569,5.568c0,2.063-4.076,5.146-6.188,6.603  c-0.675,0.467-0.987,1.439-0.614,2.17c0.7,1.37,1.895,3.293,3.089,3.293c1.857,0,8.354,0,8.354,0c1.856,0,5.568-2.784,5.568-2.784  c0,9.28,2.784,16.706,3.712,21.347c0.928,4.641,2.784,9.282,4.64,13.922c1.856,4.641,1.856,5.606,2.785,10.246  c0.928,4.642,0.928,14.889-1.857,14.889c-3.712,0-7.425,4.641-3.712,4.641h6.868c0.82,0,1.476-0.666,1.555-1.481  c0.301-3.153,1.534-4.987,2.482-5.955c0.574-0.584,1.135-1.58,1.105-2.399c0-6.87,0.79-12.369,0.79-15.022  c0-2.652,0.462-5.544,0.462-5.544c12.097,2.668,16.817-8.626,28.505-7.728c12.066,0.93,7.073,10.248,13.57,15.816  c5.43,4.655,5.285,13.873,5.091,16.776c-0.033,0.497-0.473,0.988-0.933,1.178c-2.985,1.23-3.559,4.36-1.002,4.36h5.569  c1.856,0,1.856-2.784,1.856-2.784s-0.929-7.463,0.928-14.888c1.856-7.426-3.208-11.018-1.848-20.484  C94.098,45.434,90.798,43.791,90.798,39.151z"></path></svg>