<svg height='300px' width='300px'  fill="#000000" xmlns="http://www.w3.org/2000/svg" xmlns:xlink="http://www.w3.org/1999/xlink" version="1.1" x="0px" y="0px" viewBox="0 0 100 100" enable-background="new 0 0 100 100" xml:space="preserve"><path d="M82.301,35.467C82.3,17.656,67.81,3.166,50.001,3.166c-17.812,0-32.302,14.49-32.302,32.301  c0,16.11,11.856,29.502,27.301,31.912v8.171h-9.189c-2.762,0-5,2.238-5,5s2.238,5,5,5H45v8.284c0,2.762,2.238,5,5,5s5-2.238,5-5  V85.55h9.189c2.762,0,5-2.238,5-5s-2.238-5-5-5H55v-8.171C70.444,64.969,82.301,51.577,82.301,35.467z M27.699,35.467  c0-12.297,10.005-22.301,22.302-22.301c12.295,0,22.299,10.004,22.3,22.301c0,12.297-10.004,22.301-22.301,22.301  S27.699,47.764,27.699,35.467z"></path></svg>