<svg height='300px' width='300px'  fill="#000000" xmlns="http://www.w3.org/2000/svg" xmlns:xlink="http://www.w3.org/1999/xlink" version="1.1" x="0px" y="0px" viewBox="0 0 1024 1024" style="enable-background:new 0 0 1024 1024;" xml:space="preserve"><g><g><g><path d="M177.2,323.8c-26.4,26.6-49.7,57.5-66.7,91C94.1,447.2,81.4,482,75.4,517.9c-6,36.1-8.4,72.1-3.7,108.4     c2.7,20.9,5.9,41.5,11.8,61.8c5.7,19.7,13.6,38.8,22.1,57.3c15.7,34,38,65.2,63.4,92.6c11.3,12.2,23.6,23.4,36.7,33.7     c16.6,13.1,33.5,25.5,52,35.8c31.7,17.7,66.6,31.3,102.1,38.7c35.7,7.4,72.7,10.6,109,7.1c36.5-3.6,72.2-10.7,106.1-24.9     c19.4-8.1,38.3-16.6,56.2-27.6c18-11.1,35-24,51-37.8c28.6-24.5,53.2-54.4,72.8-86.5c10.9-18,19.3-36.9,27.4-56.3     c6.1-14.7,11.1-30,14.9-45.5c4.9-19.9,7.8-40.4,9.6-60.8c1.5-15.7,1.7-31.6,0.8-47.4c-2.2-36.2-8.6-72.8-21.5-106.8     c-7.3-19.4-15.7-38.7-25.9-56.8c-10.4-18.4-22.9-35.3-36-51.9c-23.5-29.7-52.7-54.9-84.1-75.8c-30.6-20.3-65.3-35.8-100.6-45.8     c-20.1-5.7-40.5-8.8-61.2-11.4c-15.5-2-31-2.8-46.6-2.5c-20.7,0.5-41.4,3.1-61.8,6.6c-15.7,2.7-31.1,6.6-46.2,11.7     c-34.9,11.7-68.7,27.9-98.4,49.7C208.4,296,192.1,309,177.2,323.8c-10.9,10.8-17.6,27.1-17.6,42.4c0,14.7,6.5,32.3,17.6,42.4     c11.4,10.5,26.4,18.3,42.4,17.6c15.9-0.7,30.9-6.1,42.4-17.6c9.3-9.3,19.2-18,29.6-26.1c-4,3.1-8.1,6.3-12.1,9.4     c21-16.2,43.9-29.6,68.3-40c-4.8,2-9.6,4-14.3,6c25.6-10.8,52.4-18.1,79.9-21.8c-5.3,0.7-10.6,1.4-16,2.1     c27.3-3.6,54.9-3.6,82.3,0c-5.3-0.7-10.6-1.4-16-2.1c27.5,3.7,54.3,11,79.9,21.8c-4.8-2-9.6-4-14.3-6     c24.4,10.4,47.3,23.9,68.3,40c-4-3.1-8.1-6.3-12.1-9.4c20.8,16.2,39.5,34.9,55.7,55.7c-3.1-4-6.3-8.1-9.4-12.1     c16.2,21,29.6,43.9,40,68.3c-2-4.8-4-9.6-6-14.3c10.8,25.6,18.1,52.4,21.8,79.9c-0.7-5.3-1.4-10.6-2.1-16     c3.6,27.3,3.6,54.9,0,82.3c0.7-5.3,1.4-10.6,2.1-16c-3.7,27.5-11,54.3-21.8,79.9c2-4.8,4-9.6,6-14.3     c-10.4,24.4-23.9,47.3-40,68.3c3.1-4,6.3-8.1,9.4-12.1c-16.2,20.8-34.9,39.5-55.7,55.7c4-3.1,8.1-6.3,12.1-9.4     c-21,16.2-43.9,29.6-68.3,40c4.8-2,9.6-4,14.3-6c-25.6,10.8-52.4,18.1-79.9,21.8c5.3-0.7,10.6-1.4,16-2.1     c-27.3,3.6-54.9,3.6-82.3,0c5.3,0.7,10.6,1.4,16,2.1c-27.5-3.7-54.3-11-79.9-21.8c4.8,2,9.6,4,14.3,6     c-24.4-10.4-47.3-23.9-68.3-40c4,3.1,8.1,6.3,12.1,9.4c-20.8-16.2-39.5-34.9-55.7-55.7c3.1,4,6.3,8.1,9.4,12.1     c-16.2-21-29.6-43.9-40-68.3c2,4.8,4,9.6,6,14.3c-10.8-25.6-18.1-52.4-21.8-79.9c0.7,5.3,1.4,10.6,2.1,16     c-3.6-27.3-3.6-54.9,0-82.3c-0.7,5.3-1.4,10.6-2.1,16c3.7-27.5,11-54.3,21.8-79.9c-2,4.8-4,9.6-6,14.3     c10.4-24.4,23.9-47.3,40-68.3c-3.1,4-6.3,8.1-9.4,12.1c8.1-10.4,16.8-20.3,26.1-29.6c10.9-10.9,17.6-27,17.6-42.4     c0-14.7-6.5-32.3-17.6-42.4c-11.4-10.5-26.4-18.3-42.4-17.6C203.8,307,188.7,312.3,177.2,323.8z"></path></g></g><g><g><path d="M848.5,91.2c-26,26-52,52-78,78c-41.1,41.1-82.2,82.2-123.3,123.3c-9.4,9.4-18.8,18.8-28.3,28.3     c-10.9,10.9-17.6,27-17.6,42.4c0,14.7,6.5,32.3,17.6,42.4c11.4,10.5,26.4,18.3,42.4,17.6c15.9-0.7,30.9-6.1,42.4-17.6     c26-26,52-52,78-78c41.1-41.1,82.2-82.2,123.3-123.3c9.4-9.4,18.8-18.8,28.3-28.3c10.9-10.9,17.6-27,17.6-42.4     c0-14.7-6.5-32.3-17.6-42.4c-11.4-10.5-26.4-18.3-42.4-17.6C875,74.3,859.9,79.7,848.5,91.2L848.5,91.2z"></path></g></g><g><g><path d="M954.4,303.6c0.1-19.4,0.1-38.7,0.2-58.1c0.1-30.9,0.2-61.8,0.3-92.6c0-7.1,0-14.2,0.1-21.3     c0.1-32.8-27.6-59.6-60-60c-19.7-0.3-39.4-0.5-59-0.8c-31.4-0.4-62.8-0.9-94.2-1.3c-7.3-0.1-14.5-0.2-21.8-0.3     c-15.3-0.2-31.7,6.8-42.4,17.6c-10.4,10.4-18.2,27.5-17.6,42.4c0.7,15.5,5.8,31.6,17.6,42.4c11.8,10.9,26.1,17.4,42.4,17.6     c19.7,0.3,39.4,0.5,59,0.8c31.4,0.4,62.8,0.9,94.2,1.3c7.3,0.1,14.5,0.2,21.8,0.3c-20-20-40-40-60-60     c-0.1,19.4-0.1,38.7-0.2,58.1c-0.1,30.9-0.2,61.8-0.3,92.6c0,7.1,0,14.2-0.1,21.3c-0.1,15.4,6.7,31.6,17.6,42.4     c10.4,10.4,27.5,18.2,42.4,17.6c15.5-0.7,31.6-5.8,42.4-17.6C947.7,334.3,954.4,319.9,954.4,303.6L954.4,303.6z"></path></g></g></g></svg>